<?xml version="1.0" encoding="utf-8"?>
<!-- Generator: Adobe Illustrator 19.1.0, SVG Export Plug-In . SVG Version: 6.00 Build 0)  -->
<svg version="1.1" id="Layer_1" xmlns="http://www.w3.org/2000/svg" xmlns:xlink="http://www.w3.org/1999/xlink" x="0px" y="0px"
	 viewBox="-197.7 117 599.5 792" style="enable-background:new -197.7 117 599.5 792;" xml:space="preserve">
<style type="text/css">
	.st0{opacity:0;fill:#FFFFFF;}
</style>
<g>
	<path d="M401.7,165.1c0,207.9,0,415.9,0,623.8c-8,0-15.9,0-23.9,0l0.1,0.1c0-0.9-0.1-1.9-0.1-2.8c0-205.8,0-411.6,0-617.4
		c0-1.1,0-2.1,0-3.5c-1.3,0-2.3,0-3.3,0c-6.1,0-12.2-0.1-18.3,0c-1.9,0-2.5-0.6-2.4-2.5c0.1-6.3,0-12.5,0-18.8
		c0-0.9-0.1-1.8-0.2-2.6c-167.9,0-335.5,0-503.3,0c0,1.1-0.1,2-0.1,2.9c0,6.2-0.1,12.4,0,18.5c0,1.9-0.5,2.5-2.4,2.5
		c-6.2-0.1-12.3,0-18.5,0c-1,0-2,0.1-3.1,0.2c0,1.5,0,2.6,0,3.8c0,205.4,0,410.7,0,616.1c0,1.2,0,2.4-0.1,3.5l0.1-0.1
		c-8,0-15.9,0-23.9,0c0-207.9,0-415.9,0-623.8c7.9,0,15.8,0,24,0c0-8,0-15.9,0-23.9c8.1,0,15.9,0,23.7,0c0-8.1,0-15.9,0-23.8
		c168,0,336,0,504,0c0,7.9,0,15.8,0,24c8,0,15.8,0,23.9,0c0,8.1,0,15.9,0,23.7C386,165.1,393.9,165.1,401.7,165.1z"/>
	<path d="M377.9,908.7c-183.9,0-367.8,0-551.7,0c0-39.9,0-79.9,0-119.8l-0.1,0.1c0.7,0,1.3-0.1,2-0.1c182.2,0,364.3,0,546.5,0
		c1.1,0,2.2,0,3.3,0.1l-0.1-0.1C377.9,828.8,377.9,868.7,377.9,908.7z M353.9,812.9c-168.1,0-335.9,0-503.7,0c0,24,0,47.9,0,71.7
		c168,0,335.8,0,503.7,0C353.9,860.7,353.9,836.9,353.9,812.9z"/>
	<path class="st0" d="M-173.8,788.8c0,39.9,0,79.9,0,119.8c-8,0-15.9,0-23.9,0c0-39.9,0-79.9,0-119.8
		C-189.8,788.9-181.8,788.9-173.8,788.8z"/>
	<path class="st0" d="M377.9,908.7c0-39.9,0-79.9,0-119.8c8,0,15.9,0,23.9,0c0,39.9,0,79.9,0,119.8
		C393.8,908.7,385.8,908.7,377.9,908.7z"/>
	<path class="st0" d="M401.7,165.1c-7.8,0-15.7,0-23.8,0c0-7.9,0-15.7,0-23.7c-8.1,0-15.9,0-23.9,0c0-8.2,0-16.1,0-24
		c15.9,0,31.8,0,47.7,0C401.7,133.2,401.7,149.1,401.7,165.1z"/>
	<path class="st0" d="M-150,117.3c0,7.8,0,15.7,0,23.8c-7.9,0-15.7,0-23.7,0c0,8.1,0,15.9,0,23.9c-8.2,0-16.1,0-24,0
		c0-15.9,0-31.7,0-47.7C-181.8,117.3-165.9,117.3-150,117.3z"/>
	<path class="st0" d="M377.9,788.9c-1.1,0-2.2-0.1-3.3-0.1c-182.2,0-364.3,0-546.5,0c-0.7,0-1.3,0-2,0.1c0-1.2,0.1-2.4,0.1-3.5
		c0-205.4,0-410.7,0-616.1c0-1.2,0-2.4,0-3.8c1.1-0.1,2.1-0.2,3.1-0.2c6.2,0,12.4-0.1,18.5,0c1.9,0,2.5-0.6,2.4-2.5
		c-0.1-6.2,0-12.3,0-18.5c0-0.9,0.1-1.8,0.1-2.9c167.8,0,335.4,0,503.3,0c0.1,0.9,0.2,1.7,0.2,2.6c0,6.3,0.1,12.5,0,18.8
		c0,1.9,0.5,2.5,2.4,2.5c6.1-0.1,12.2,0,18.3,0c1,0,2,0,3.3,0c0,1.4,0,2.4,0,3.5c0,205.8,0,411.6,0,617.4
		C377.8,787.1,377.9,788,377.9,788.9z M305.7,213.3c0-7.9,0-15.8,0-23.9c-135.9,0-271.6,0-407.5,0c0,8.1,0,16,0,23.9
		c-7.9,0-15.8,0-24.1,0c0,1.5,0,2.7,0,4c0,109.1,0,218.3,0,327.4c0,0.7,0.1,1.4,0,2c-0.2,1.8,0.6,2.3,2.3,2.3c6.3-0.1,12.5,0,18.8,0
		c0.9,0,1.8,0.1,3,0.2c0,8.1,0,15.9,0,23.7c136,0,271.6,0,407.6,0c0-8,0-15.8,0-23.9c8.1,0,15.9,0,23.8,0c0-112.1,0-223.8,0-335.6
		C321.6,213.3,313.7,213.3,305.7,213.3z M305.7,692.8c0-8,0-15.8,0-23.7c-47.9,0-95.6,0-143.5,0c0,8,0,15.8,0,23.7
		C210,692.8,257.7,692.8,305.7,692.8z M-78.1,716.7c0-8.1,0-15.9,0-23.6c-16,0-31.7,0-47.5,0c0,8,0,15.8,0,23.6
		C-109.7,716.7-94,716.7-78.1,716.7z"/>
	<path class="st0" d="M353.9,812.9c0,24,0,47.7,0,71.7c-167.9,0-335.7,0-503.7,0c0-23.9,0-47.7,0-71.7
		C18,812.9,185.8,812.9,353.9,812.9z"/>
	<path d="M305.7,213.3c7.9,0,15.9,0,23.9,0c0,111.9,0,223.6,0,335.6c-7.9,0-15.7,0-23.8,0c0,8.2,0,16,0,23.9
		c-135.9,0-271.6,0-407.6,0c0-7.9,0-15.7,0-23.7c-1.2-0.1-2.1-0.1-3-0.2c-6.3,0-12.5-0.1-18.8,0c-1.7,0-2.5-0.5-2.3-2.3
		c0.1-0.7,0-1.4,0-2c0-109.1,0-218.3,0-327.4c0-1.2,0-2.5,0-4c8.2,0,16.2,0,24.1,0l-0.1-0.1c0,111.8,0,223.6,0,335.5
		c136,0,271.7,0,407.6,0C305.8,436.8,305.8,325,305.7,213.3L305.7,213.3z"/>
	<path d="M-101.8,213.3c0-7.9,0-15.8,0-23.9c135.9,0,271.6,0,407.5,0c0,8.1,0,16,0,23.9l0.1-0.1C169.9,213.2,34.1,213.2-101.8,213.3
		L-101.8,213.3z"/>
	<path d="M305.7,692.8c-48,0-95.6,0-143.5,0c0-7.9,0-15.7,0-23.7c47.9,0,95.6,0,143.5,0C305.7,677,305.7,684.8,305.7,692.8z"/>
	<path d="M-78.1,716.7c-15.9,0-31.5,0-47.5,0c0-7.9,0-15.6,0-23.6c15.8,0,31.5,0,47.5,0C-78.1,700.9-78.1,708.7-78.1,716.7z"/>
	<path class="st0" d="M-101.8,213.2c135.9,0,271.8,0,407.6,0c0,111.8,0,223.6,0,335.5c-136,0-271.7,0-407.6,0
		C-101.8,436.8-101.8,325-101.8,213.2z M137.8,477.3c-1.3-0.1-2.7-0.2-4-0.2c-29.3,0-58.7,0-88,0c-1.2,0-2.3,0-3.7,0
		c0-1.3,0-2.2,0-3.1c0-6.2-0.1-12.3,0-18.5c0-1.9-0.5-2.5-2.4-2.5c-6.3,0.1-12.7,0-19,0.1c-0.8,0-1.6,0-2.4,0c0,8.2,0,16,0,24.2
		c8,0,15.8,0,23.9,0c0,8.1,0,15.9,0,23.7c32.1,0,63.8,0,95.7,0C137.8,492.9,137.8,485.1,137.8,477.3c7.3-0.1,14.6-0.2,22-0.2
		c1.3,0,2.3-0.1,2.2-1.8c-0.1-6.8-0.1-13.7,0-20.5c0-1.3-0.5-1.8-1.8-1.8c-7.1,0-14.2,0-21.3,0.1c-0.3,0-0.6,0.2-1.1,0.4
		C137.8,461.4,137.8,469.3,137.8,477.3z M66.2,428.8c16.1,0,31.8,0,47.6,0c0-47.9,0-95.7,0-143.4c-8,0-15.8,0-23.8,0
		c0,40,0,79.7,0,119.7c-8,0-15.9,0-23.8,0C66.2,413.2,66.2,420.9,66.2,428.8z M17.9,285.4c-8.1,0-15.9,0-23.7,0c0,16,0,31.7,0,47.5
		c8,0,15.8,0,23.7,0C17.9,317,17.9,301.3,17.9,285.4z M185.9,285.2c-7.3,0-14.3,0.1-21.3-0.1c-2.2,0-2.6,0.8-2.6,2.8
		c0.1,14.2,0,28.4,0,42.6c0,0.8,0.1,1.6,0.2,2.4c8.1,0,15.9,0,23.7,0C185.9,317,185.9,301.3,185.9,285.2z"/>
	<path d="M66.2,428.8c0-7.9,0-15.6,0-23.7c7.9,0,15.7,0,23.8,0c0-40,0-79.8,0-119.7c8,0,15.8,0,23.8,0c0,47.7,0,95.5,0,143.4
		C98,428.8,82.3,428.8,66.2,428.8z"/>
	<path d="M137.8,477.2c0,7.8,0,15.7,0,23.7c-31.8,0-63.6,0-95.7,0c0-7.8,0-15.6,0-23.7c-8.1,0-15.9,0-23.9,0c0-8.1,0-16,0-24.2
		c0.8,0,1.6,0,2.4,0c6.3,0,12.7,0.1,19-0.1c1.9,0,2.5,0.6,2.4,2.5c-0.1,6.2,0,12.3,0,18.5c0,0.9,0,1.8,0,3.1c1.4,0,2.6,0,3.7,0
		c29.3,0,58.7,0,88,0C135.1,477.1,136.5,477.2,137.8,477.2L137.8,477.2z"/>
	<path d="M17.9,285.4c0,15.9,0,31.6,0,47.5c-7.9,0-15.7,0-23.7,0c0-15.8,0-31.5,0-47.5C2.1,285.4,9.9,285.4,17.9,285.4z"/>
	<path d="M185.9,285.2c0,16.1,0,31.8,0,47.7c-7.8,0-15.6,0-23.7,0c-0.1-0.8-0.2-1.6-0.2-2.4c0-14.2,0-28.4,0-42.6
		c0-2,0.4-2.8,2.6-2.8C171.6,285.3,178.6,285.2,185.9,285.2z"/>
	<path d="M137.8,477.3c0-7.9,0-15.9,0-23.8c0.5-0.2,0.8-0.4,1.1-0.4c7.1,0,14.2,0,21.3-0.1c1.3,0,1.8,0.4,1.8,1.8
		c0,6.8-0.1,13.7,0,20.5c0,1.8-0.9,1.8-2.2,1.8C152.5,477.1,145.1,477.2,137.8,477.3L137.8,477.3z"/>
</g>
</svg>
